<?xml version="1.0" standalone="no"?>
<!DOCTYPE svg PUBLIC "-//W3C//DTD SVG 1.1//EN" "http://www.w3.org/Graphics/SVG/1.1/DTD/svg11.dtd" >
<svg xmlns="http://www.w3.org/2000/svg">
<metadata>
Created by FontForge 20120731 at Mon May 30 10:59:11 2016
 By admin
</metadata>
<defs>
<font id="iconfont" horiz-adv-x="1024" >
  <font-face 
    font-family="iconfont"
    font-weight="500"
    font-stretch="normal"
    units-per-em="1024"
    panose-1="2 0 6 3 0 0 0 0 0 0"
    ascent="896"
    descent="-128"
    x-height="792"
    bbox="-4 -154 1027 896"
    underline-thickness="50"
    underline-position="-100"
    unicode-range="U+0078-E644"
  />
<missing-glyph horiz-adv-x="374" 
d="M34 0v682h272v-682h-272zM68 34h204v614h-204v-614z" />
    <glyph glyph-name=".notdef" horiz-adv-x="374" 
d="M34 0v682h272v-682h-272zM68 34h204v614h-204v-614z" />
    <glyph glyph-name=".null" horiz-adv-x="0" 
 />
    <glyph glyph-name="nonmarkingreturn" horiz-adv-x="341" 
 />
    <glyph glyph-name="x" unicode="x" horiz-adv-x="1001" 
d="M281 543q-27 -1 -53 -1h-83q-18 0 -36.5 -6t-32.5 -18.5t-23 -32t-9 -45.5v-76h912v41q0 16 -0.5 30t-0.5 18q0 13 -5 29t-17 29.5t-31.5 22.5t-49.5 9h-133v-97h-438v97zM955 310v-52q0 -23 0.5 -52t0.5 -58t-10.5 -47.5t-26 -30t-33 -16t-31.5 -4.5q-14 -1 -29.5 -0.5
t-29.5 0.5h-32l-45 128h-439l-44 -128h-29h-34q-20 0 -45 1q-25 0 -41 9.5t-25.5 23t-13.5 29.5t-4 30v167h911zM163 247q-12 0 -21 -8.5t-9 -21.5t9 -21.5t21 -8.5q13 0 22 8.5t9 21.5t-9 21.5t-22 8.5zM316 123q-8 -26 -14 -48q-5 -19 -10.5 -37t-7.5 -25t-3 -15t1 -14.5
t9.5 -10.5t21.5 -4h37h67h81h80h64h36q23 0 34 12t2 38q-5 13 -9.5 30.5t-9.5 34.5q-5 19 -11 39h-368zM336 498v228q0 11 2.5 23t10 21.5t20.5 15.5t34 6h188q31 0 51.5 -14.5t20.5 -52.5v-227h-327z" />
    <glyph glyph-name="uniE600" unicode="&#xe600;" 
d="M934 693v-618q0 -47 -33 -80t-80 -33h-618q-47 0 -80 33t-33 80v618q0 47 33 80t80 33h618q47 0 80 -33t33 -80zM877 693q0 24 -16.5 40t-39.5 16h-618q-24 0 -40 -16t-16 -40v-618q0 -23 16 -39.5t40 -16.5h618q23 0 39.5 16.5t16.5 39.5v618zM812.5 292q8.5 -8 8.5 -20
t-9 -20l-168 -168q-8 -9 -20 -9t-20 9l-169 168q-8 8 -8 20t8.5 20t20 8t19.5 -8l121 -121v466h-309q-12 0 -20 8t-8 20t8 20t20 8h335l1 1h1q12 0 20 -8.5t8 -20.5v-1v-1v-492l121 121q8 8 19.5 8t20 -8z" />
    <glyph glyph-name="uniE601" unicode="&#xe601;" 
d="M483 579q0 14 9 23t23 9q13 0 22.5 -9t9.5 -23v-485q0 -13 -9.5 -22.5t-22.5 -9.5q-14 0 -23 9.5t-9 22.5v485zM332 579q0 14 9.5 23t22.5 9t22.5 -9t9.5 -23v-485q0 -13 -9.5 -22.5t-22.5 -9.5t-22.5 9.5t-9.5 22.5v485zM633 579q0 14 9.5 23t22.5 9q14 0 23 -9t9 -23
v-485q0 -13 -9 -22.5t-23 -9.5q-13 0 -22.5 9.5t-9.5 22.5v485zM899 737h-126h-46v40q0 23 -18.5 39.5t-45.5 16.5h-296q-27 0 -45.5 -16.5t-18.5 -39.5v-40h-46h-132q-13 0 -22.5 -9.5t-9.5 -23t9.5 -22.5t22.5 -9h68v-675q0 -26 18.5 -44.5t45.5 -18.5h516q26 0 45 18.5
t19 44.5v675h62q13 0 22.5 9t9.5 22.5t-9.5 23t-22.5 9.5zM367 769h296v-32h-296v32zM739 -1q-414 -1 -449 -1q-10 0 -17 4t-10 8.5t-4.5 11t-1.5 8.5v4v608q0 10 3 17t7.5 9.5t9.5 4t8 0.5h3h79h296h72h5q2 0 8.5 -1.5t11.5 -4.5t9 -9.5t4 -15.5v-306v-305q0 -14 -8.5 -22
t-16.5 -9z" />
    <glyph glyph-name="uniE602" unicode="&#xe602;" 
d="M816 448q-1 -1 -4 2l-233 234l-3 3l53 53q1 1 4 -2l233 -234q3 -3 3 -4zM931 695l-108 109q-20 20 -47 25t-49 -7q-10 -5 -17 -12l-33 -32l-6 -8q1 0 1 -1l224 -224q1 -1 2 -1q4 3 7 6l33 32q7 8 12 17q12 22 6.5 49t-25.5 47zM305 120zM243 184zM305 120zM397 30
q-1 -2 93.5 91.5t189.5 188.5l95 95q5 5 5 6l-50 49q0 1 -5 -4l-373 -373l-4 -3l-5 -2q-143 -42 -147 -42q-1 0 -5.5 4t-8.5 9l-4 4q-14 13 -14 16t45 156l371 373q5 5 5 6l-47 46q0 1 -5 -4l-378 -378q-5 -5 -6 -7l-79 -268q-6 -8 -6 -19q0 -15 10.5 -25.5t25.5 -10.5
q10 0 19 5q1 0 3 1q257 75 261 78zM687 504l-62 61q-1 1 -5 -4l-373 -373q-4 -3 -4 -5l50 -11q4 -2 5 -6l1 -1l6 -44q2 1 5 4l373 373q5 5 4 6z" />
    <glyph glyph-name="uniE603" unicode="&#xe603;" 
d="M923 202l-410 410l-409 -410h819z" />
    <glyph glyph-name="uniE604" unicode="&#xe604;" 
d="M830 651l-51 51l-267 -266l-267 266l-51 -51l318 -319zM512 143l-267 267l-51 -52l318 -318l318 318l-51 52z" />
    <glyph glyph-name="uniE605" unicode="&#xe605;" 
d="M262 834l500 -450l-500 -450v900z" />
    <glyph glyph-name="uniE606" unicode="&#xe606;" 
d="M92 602l420 -437l419 437h-839zM92 602z" />
    <glyph glyph-name="uniE607" unicode="&#xe607;" 
d="M762 834l-500 -450l500 -450v900z" />
    <glyph glyph-name="uniE608" unicode="&#xe608;" horiz-adv-x="1031" 
d="M978 143h-119v119q0 20 -13.5 33t-33 13t-33 -13t-13.5 -33v-126h-132q-20 0 -33 -13t-13 -33t13 -33t33 -13h126v-126q0 -20 13 -33t33 -13t33 13t13 33v126h126q20 0 33 13t13 33q5 19 -10.5 36t-35.5 17zM509 11h-364q-19 0 -32.5 13t-13.5 33v694q0 19 13.5 32.5
t32.5 13.5h687q20 0 33.5 -13.5t13.5 -32.5v-350v0q0 -20 13 -33.5t33 -13.5t33 13.5t13 33.5v0v396q0 40 -29.5 69.5t-69.5 29.5h-773q-40 0 -69.5 -29.5t-29.5 -69.5v-786q0 -40 29.5 -69.5t69.5 -29.5h410q20 0 33 13t13 33q0 24 -13 38.5t-33 14.5zM509 156
q14 30 45.5 48t66.5 18h53v60q0 39 22 71t57 48v0l-66 198l-231 -298l-66 106l-245 -251h364zM390 579q0 30 -21.5 51.5t-51.5 21.5t-51.5 -21.5t-21.5 -51.5t21.5 -51.5t51.5 -21.5t51.5 21.5t21.5 51.5zM390 579z" />
    <glyph glyph-name="uniE609" unicode="&#xe609;" 
d="M502.5 831q94.5 0 161 -65.5t66.5 -158t-66.5 -158t-161 -65.5t-161 65.5t-66.5 158t66.5 158t161 65.5zM502.5 831q94.5 0 161 -65.5t66.5 -158t-66.5 -158t-161 -65.5t-161 65.5t-66.5 158t66.5 158t161 65.5zM417 309h190q121 0 207 -84.5t86 -203.5v-19
q0 -15 -9.5 -26.5t-31 -18.5t-44 -11.5t-61 -6t-68.5 -2t-79 -0.5h-190h-79q-26 0 -67.5 2t-62 6t-43.5 11t-32 18.5t-9 27.5v19q0 119 86 203.5t207 84.5z" />
    <glyph glyph-name="uniE60A" unicode="&#xe60a;" 
d="M949 19l-233 232q70 94 70 213q0 96 -47.5 178t-129.5 129.5t-178.5 47.5t-178.5 -47.5t-129.5 -129.5t-47.5 -178.5t47.5 -178.5t129.5 -129.5t178 -47.5q119 0 214 71l232 -230zM134 463.5q0 122.5 87 209.5t209.5 87t209.5 -87t87 -209.5t-87 -209t-209.5 -86.5
t-209.5 86.5t-87 209z" />
    <glyph glyph-name="uniE60B" unicode="&#xe60b;" 
d="M671 118l-267 265l265 268q9 9 9 21.5t-9 21.5t-21.5 8t-21.5 -11l-283 -283q-8 -10 -9 -12q-7 -19 7 -36l287 -287q9 -7 21.5 -6.5t21.5 8.5q9 9 9 21.5t-9 21.5z" />
    <glyph glyph-name="uniE60C" unicode="&#xe60c;" 
d="M561 18h-459v734h459v-183h73v172q0 35 -24.5 59.5t-59.5 24.5h-437q-35 0 -59.5 -24.5t-24.5 -59.5v-712q0 -35 24.5 -59.5t59.5 -24.5h437q35 0 59.5 24.5t24.5 59.5v173h-73v-184zM949 427l-159 159l-45 -45l119 -119h-358v-74h365l-126 -125l45 -45l170 170l34 34z
" />
    <glyph glyph-name="uniE60D" unicode="&#xe60d;" 
d="M1005 476q0 26 -21 42l-433 317q-13 9 -30.5 9t-30.5 -9l-433 -317q-9 -6 -15 -17q-3 -2 -4 -5q-4 -7 -2 -14q0 -1 -0.5 -3t-0.5 -3v-526q0 -22 15.5 -37t36.5 -15h867q21 0 36 15t15 37v526zM513 803q3 3 7.5 3t7.5 -3l426 -311l-434 -248l-434 247zM963 -59
q-4 -4 -9 -4h-867q-5 0 -9 3.5t-4 9.5v503l437 -248q4 -3 9.5 -3t9.5 3l436 249v-504q0 -6 -3 -9z" />
    <glyph glyph-name="uniE60E" unicode="&#xe60e;" horiz-adv-x="1058" 
d="M134 843h556h123q4 0 18 0.5t24.5 0.5t16.5 -2q26 -7 48 -26v-1t1 -2t3.5 -3t3.5 -3t2 -3v-2q11 -17 16 -35v-6q2 -6 2 -16t-0.5 -23.5t-0.5 -17.5v-149v-148q0 -5 0.5 -16t0.5 -17.5t-1 -15t-4 -12.5q-10 -15 -28.5 -14.5t-27.5 15.5q-4 5 -5 13t0 26v17v274q0 5 0.5 19
t0.5 24t-0.5 21.5t-3.5 19t-7 11.5q-9 6 -50 6h-108h-421h-120h-7h-8h-7q-5 0 -7.5 -0.5t-6 -1.5t-5.5 -2t-4.5 -2.5t-4.5 -4.5q-6 -8 -6 -50v-107v-422v-119v-7v-8v-8q0 -4 0.5 -6.5t1.5 -6t2 -6t2.5 -4.5t4.5 -4q9 -6 40 -6h69h286h11h11q3 0 9.5 -0.5t10 -1t8 -2
t7.5 -4.5q1 -1 3 -4q1 -1 1 -2q10 -15 5.5 -29.5t-19.5 -20.5q-2 -1 -39 -1h-89h-214h-67q-30 0 -33 1q-50 14 -67 52q-9 19 -9 84v146v384v108q0 47 5 59q16 38 48 53q5 2 18 6q2 0 6 0.5t5 1.5zM332 620h304q3 0 21.5 0.5t30.5 0t18 -3.5q9 -4 15 -17q5 -12 3 -20
q-5 -17 -19 -23q-5 -2 -28 -2h-53h-209h-58q-25 0 -30 2q-11 4 -17 18t1 29q5 8 13 12q1 1 4 1.5t4 2.5zM333 428h303h45q3 0 10.5 -0.5t10.5 -0.5q11 -4 17 -16q7 -13 5 -22q-5 -18 -19 -24q-5 -2 -28 -2h-53h-209h-58q-25 0 -30 2q-13 6 -18 21t4 29q5 7 16 12h2q1 0 2 1z
M686 268q10 0 18 -3t11.5 -6.5t10.5 -11t9 -10.5q3 -3 72 -70q1 -1 8 -9t12.5 -13.5t9.5 -6.5q75 76 120 122q12 7 26 4.5t21 -12.5q5 -7 5 -19t-5 -19q-17 -16 -59 -58t-64 -63l1 -1l1 -1l1 -1l1 -1l1 -1l1 -1l1 -1l1 -1l1 -1l1 -1l1 -1l1 -1l1 -1l1 -1l1 -1l1 -1l1 -1
l1 -1l1 -1l1 -1l1 -1l1 -1l1 -1l1 -1l1 -1l1 -1l1 -1l1 -1l1 -1l1 -1l1 -1l1 -1l1 -1l1 -1l1 -1l1 -1l1 -1l1 -1l1 -1l1 -1l1 -1l1 -1l1 -1l1 -1l1 -1l1 -1l1 -1l1 -1l1 -1l1 -1l1 -1l1 -1l1 -1l1 -1l1 -1l1 -1l1 -1l1 -1l1 -1l1 -1l1 -1l1 -1l1 -1l1 -1l1 -1l1 -1l1 -1
l1 -1l1 -1l1 -1l1 -1l1 -1l1 -1l1 -2l1 -1l1 -1l1 -1l1 -1l1 -1l1 -1l1 -1l1 -1l1 -1l1 -1l1 -1l1 -1l1 -1l1 -1l1 -1l1 -1l1 -1l1 -1l1 -1l1 -1l1 -1l1 -1l1 -1l1 -1l1 -1l1 -1l1 -1l1 -1l1 -1l1 -1l1 -1l1 -1l2 -2q1 -1 5 -4.5t6 -5.5t5.5 -7t4.5 -8t2.5 -9t-1.5 -11
q-2 -6 -6 -12q-7 -10 -22 -11t-25 6l-1 1l-1 1l-1 1l-1 1l-1 1l-1 1l-1 1l-1 1l-1 1l-1 1l-1 1l-1 1l-1 1l-1 1l-1 1l-1 1l-1 1l-1 1l-1 1l-1 1l-1 1l-1 1l-1 1l-1 1l-1 1l-1 1l-1 1l-1 1l-1 1l-1 1l-1 1l-1 1l-1 1l-1 1l-1 1l-1 1l-1 1l-1 1l-1 1l-1 1l-1 1l-1 1l-1 1l-1 1
l-1 1l-1 1l-1 1l-1 1l-1 1l-1 1l-1 1l-1 1l-1 1l-1 1l-1 1l-1 1l-1 1l-1 1l-1 1l-1 1l-1 1l-1 1l-1 1l-1 1l-1 1l-1 1v1l-1 1l-1 1l-1 1l-1 1l-1 1l-1 1l-1 1l-1 1l-1 1l-1 1l-1 1l-1 1l-1 1l-1 1l-1 1l-2 2l-1 1l-1 1l-1 1l-1 1l-1 1l-1 1l-1 1l-1 1l-1 1l-1 1l-1 1l-1 1
l-1 1l-1 1l-1 1l-1 1l-1 1l-1 1l-1 1l-1 1l-1 1l-1 1l-1 1l-1 1l-1 1l-1 1l-1 1l-1 1l-1 1l-1 1l-1 1l-1 1l-1 1l-1 1l-1 1l-1 1l-1 1l-1 1l-1 2q-1 -1 -2 -1l-2 -3q-2 -1 -3.5 -3t-2.5 -3l-6 -6l-8 -8l-6 -6l-32 -32q-21 -21 -32 -31q-5 -5 -14.5 -15t-14.5 -15
q-12 -7 -26 -4t-21 13q-1 1 -1.5 3t-0.5 4t-1 4q0 8 -1 12t3 10.5t6 8.5t7.5 7t6.5 6q28 29 74 75l21 21q8 8 9 10l-10 9l-20 20l-1 1l-1 1l-1 1l-1 1l-1 1l-1 1l-1 1l-1 1l-1 1l-1 1l-1 1l-1 1l-1 1l-1 1l-1 1l-1 1l-1 1l-1 1l-1 1l-1 1l-2 2l-1 1l-1 1l-1 1l-1 1l-1 1
l-1 1l-1 1l-1 1l-1 1l-1 1l-1 1l-1 1l-1 1l-1 1l-1 1l-1 1l-1 1l-1 1l-1 1l-1 1l-1 1l-1 1l-1 1l-1 1l-1 1l-1 1l-1 1l-1 1l-1 1l-1 1l-1 1l-1 1l-1 1l-1 1l-1 1l-1 1l-1 1l-1 1l-1 1l-1 1l-1 1l-1 1l-1 1q-3 3 -10 9t-11 10t-8 10.5t-6 13.5q-3 10 3.5 20.5t13.5 14.5
q1 1 5 1.5t5 1.5zM335 236h128q4 0 13 0.5t15 0.5t13 -1t11 -3q8 -4 14 -14.5t3 -20.5q-5 -19 -21 -26q-5 -1 -11.5 -1.5t-15.5 0t-13 0.5h-89h-14h-18q-7 0 -15 0.5t-11 3.5q-11 6 -15 19.5t3 26.5q5 9 15 13q1 1 4 1t4 1z" />
    <glyph glyph-name="uniE60F" unicode="&#xe60f;" 
d="M863 333h-302v-302h-100v302h-302v101h302v302h100v-302h302v-101z" />
    <glyph glyph-name="uniE610" unicode="&#xe610;" 
d="M502 414zM414 300h-97v97h97v-97zM560 397h-97v-97h97v97zM707 397h-97v-97h97v97zM414 255h-97v-97h97v97zM560 255h-97v-97h97v97zM707 255h-97v-97h97v97zM743 592q0 -12 -9 -21t-21.5 -9t-21 9t-8.5 21v75q0 13 8.5 21.5t21 8.5t21.5 -8.5t9 -21.5v-75zM339 667
q0 13 -9 21.5t-21 8.5t-21 -8.5t-9 -21.5v-75q0 -12 9 -21t21 -9t21 9t9 21v75zM779 624v-31q0 -27 -19.5 -46.5t-47 -19.5t-46.5 19.5t-19 46.5v31h-272v-31q0 -27 -19.5 -46.5t-46.5 -19.5t-46.5 19.5t-19.5 46.5v31h-72v-590h678v590h-70zM783 99h-546v366h546v-366z" />
    <glyph glyph-name="uniE611" unicode="&#xe611;" 
d="M322 541h379v-79h-379v79zM322 414h268v-60h-268v60zM512 890l489 -397l-141 -79h-30v206l-633 1v-207h-33l-143 78zM945 462h73v31h-17zM77 462l-56 30l-16 1v-31h72zM974 462l-288 -227l239 -247l-297 206l-116 -78l-119 79l-287 -207l233 247l-285 227h-49v-469v-12
q0 -8 5 -28t15 -35.5t33.5 -28t56.5 -12.5h794q4 0 11.5 0.5t26.5 5.5t33.5 15t26 33.5t11.5 56.5v474h-44z" />
    <glyph glyph-name="uniE612" unicode="&#xe612;" 
d="M830 292v-127h-637v127h-129v-256h24h105h637h45h84v256h-129zM386 221h253v325h129l-256 256l-255 -256h129v-325zM386 221z" />
    <glyph glyph-name="uniE613" unicode="&#xe613;" 
d="M380 634h453v-45h-453v45zM380 508h453v-45h-453v45zM380 383h453v-46h-453v46zM415 760h191v-45h-191v45zM188 634h146v-45h-146v45zM188 508h146v-45h-146v45zM188 383h146v-46h-146v46zM969 277v574q0 2 -0.5 5t-3 10.5t-6.5 13.5t-13.5 11t-21.5 5h-827
q-20 0 -31 -11.5t-13 -22.5l-1 -11v-934q0 -20 11.5 -31t22.5 -13l11 -1h464l-45 45h-419v934h827v-528l45 -56v10zM764 281h-40v-81q0 -5 5 -11t16 -6q8 0 13.5 6t5.5 11v36q45 0 77 -13t49 -36t25 -50t8 -59q0 -65 -44 -112t-118 -47q-61 0 -109 48.5t-48 109.5
q0 70 47 114q4 4 6 14t-4 18q-9 6 -17.5 4.5t-12.5 -4.5q-22 -16 -42.5 -54t-20.5 -92q0 -86 57 -145t147 -59q92 0 148.5 56t55.5 148q1 90 -58 147t-146 57zM799 33q15 12 16.5 31t-9.5 32q-6 8 -39.5 32.5t-64.5 45.5l-30 21q47 -135 63 -155q12 -15 29.5 -17.5
t34.5 10.5zM799 33z" />
    <glyph glyph-name="uniE614" unicode="&#xe614;" 
d="M757 858h-454h-7q-4 0 -15.5 -4t-20 -10t-15.5 -20t-7 -33v-814q1 -1 0 -7t2 -16.5t8.5 -20t19 -16.5t32.5 -7h460h8q4 0 14.5 3.5t19 9.5t15.5 19.5t7 31.5v817v7q-1 7 -4 16.5t-9.5 19.5t-20.5 17t-33 7zM465 825h130v-32h-130v32zM416 825q7 0 11.5 -4.5t4.5 -11.5
t-4.5 -11.5t-11.5 -4.5t-11.5 4.5t-4.5 11.5t4.5 11.5t11.5 4.5zM530 -25q-13 0 -22.5 9.5t-9.5 23t9.5 23.5t23 10t23 -10t9.5 -23.5t-9.5 -23t-23.5 -9.5zM760 106h-459v654h459v-654zM760 106z" />
    <glyph glyph-name="uniE615" unicode="&#xe615;" 
d="M857 41l-1 3q0 4 -1 7q-11 92 -66.5 164.5t-139.5 108.5q49 33 77.5 85.5t28.5 114.5q0 100 -71 170.5t-171 70.5t-170.5 -70.5t-70.5 -170.5q0 -62 28 -114.5t77 -85.5q-82 -35 -137.5 -107t-67.5 -162q-2 -6 -2 -11v-3v0v-1q0 -14 10 -24t24.5 -10t24.5 10t10 24v1
q12 99 85.5 167.5t173.5 73.5h15h15q100 -5 173.5 -73.5t85.5 -167.5h1v-1q0 -14 10 -24t24 -10t24.5 10t10.5 24v1v0zM513.5 351q-71.5 0 -122 50.5t-50.5 122t50.5 122t122 50.5t122 -50.5t50.5 -122t-50.5 -122t-122 -50.5z" />
    <glyph glyph-name="uniE616" unicode="&#xe616;" 
d="M677 231h-343q-5 0 -8.5 -3t-3.5 -8t3.5 -8t8.5 -3h343q4 0 7.5 3t3.5 8t-3.5 8t-7.5 3zM677 325h-343q-5 0 -8.5 -3.5t-3.5 -8t3.5 -8t8.5 -3.5h343q4 0 7.5 3.5t3.5 8t-3.5 8t-7.5 3.5zM677 418h-343q-5 0 -8.5 -3.5t-3.5 -8t3.5 -8t8.5 -3.5h343q4 0 7.5 3.5t3.5 8
t-3.5 8t-7.5 3.5zM334 487h157q4 0 7.5 3t3.5 8t-3.5 8t-7.5 3h-157q-5 0 -8.5 -3t-3.5 -8t3.5 -8t8.5 -3zM833 636l-122 120q-8 8 -20 8h-481q-12 0 -20 -8t-8 -20v-686q0 -12 9 -20l85 -85q8 -8 19.5 -8t19.5 8l87 87l90 -87q8 -8 19.5 -8t19.5 8l91 87l90 -87
q8 -8 19.5 -8t19.5 8l82 78q8 9 8 21v572q0 12 -8 20zM731 -19l-90 87q-8 8 -19.5 8t-19.5 -8l-90 -87l-90 87q-9 8 -20 8t-20 -8l-87 -88l-66 65v673h446v-92q0 -7 4.5 -12t11.5 -5h106v-571z" />
    <glyph glyph-name="uniE617" unicode="&#xe617;" 
d="M256 512zM192 512q0 26 19 45t45 19t45 -19t19 -45t-19 -45t-45 -19t-45 19t-19 45zM512 512zM448 512q0 26 19 45t45 19t45 -19t19 -45t-19 -45t-45 -19t-45 19t-19 45zM704 896h-384q-133 0 -226.5 -94t-93.5 -227v-142q0 -59 23 -114t59.5 -94.5t82 -65t91.5 -31.5
v-192l320 192h128q134 0 227 86.5t93 218.5v142q0 87 -43 161t-116.5 117t-160.5 43zM960 448q0 -107 -75 -181.5t-181 -74.5h-128l-256 -150v150h-32q-96 12 -160 85.5t-64 170.5v127q0 107 75 182t181 75h384q106 0 181 -75t75 -182v-127zM768 512zM704 512q0 26 19 45
t45 19t45 -19t19 -45t-19 -45t-45 -19t-45 19t-19 45z" />
    <glyph glyph-name="uniE618" unicode="&#xe618;" 
d="M646 -101h-464q-53 0 -90.5 37.5t-37.5 91.5v712q0 54 37.5 91.5t90.5 37.5h598q53 0 90.5 -37.5t37.5 -91.5v-186q0 -11 -7.5 -19t-19 -8t-19 8t-7.5 19v186q0 31 -22 53t-53 22h-598q-31 0 -52.5 -22t-21.5 -53v-712q0 -31 21.5 -53t52.5 -22h464q11 0 19 -8t8 -19
t-8 -19t-19 -8zM953.5 -73q-11.5 0 -19.5 8l-134 135q-71 -56 -161 -56q-106 0 -181.5 75t-75.5 181.5t75.5 182t182 75.5t181.5 -75.5t75 -181.5q0 -92 -58 -163l135 -135q7 -8 7 -19t-7.5 -19t-19 -8zM640 474q-84 0 -144 -59.5t-60 -143.5t60 -143.5t144 -59.5
t143.5 59.5t59.5 143.5t-59.5 143.5t-143.5 59.5zM359 52h-118q-11 0 -19 8t-8 19t8 19t19 8h118q11 0 19 -8t8 -19t-8 -19t-19 -8zM313 356h-72q-11 0 -19 8t-8 19t8 19t19 8h72q11 0 19 -8t8 -19t-8 -19t-19 -8zM721 660h-480q-11 0 -19 8t-8 19t8 19t19 8h480q11 0 19 -8
t8 -19t-8 -19t-19 -8z" />
    <glyph glyph-name="uniE619" unicode="&#xe619;" horiz-adv-x="1027" 
d="M481 459h64v-491h-64v491zM492 480l45 -45l-129 -132l-46 45zM516 501l148 -150l-46 -45l-148 150zM353 144h-157q-13 0 -22.5 9t-9.5 22.5t9.5 23t22.5 9.5h157q13 0 22.5 -9.5t9.5 -23t-9.5 -22.5t-22.5 -9zM845 144h-173q-13 0 -22.5 9t-9.5 22.5t9.5 23t22.5 9.5h173
q13 0 22.5 -9.5t9.5 -23t-9.5 -22.5t-22.5 -9zM196 144q-66 0 -121 50q-35 32 -55 76.5t-20 88.5q0 63 36 116t97 80q12 6 24.5 1t17.5 -17t0.5 -24.5t-16.5 -17.5q-43 -19 -69 -56.5t-26 -81.5q0 -31 15 -63t40 -55q40 -37 85 -33q13 1 23 -7.5t11 -21.5t-7.5 -23.5
t-21.5 -11.5h-13zM150 494h-3q-13 2 -21.5 12t-7.5 23q5 55 50 94.5t103 39.5q45 0 82 -25q11 -8 13.5 -21t-5 -24t-20.5 -13.5t-24 5.5q-21 14 -46 14q-33 0 -59.5 -22.5t-29.5 -53.5q-1 -12 -10 -20.5t-22 -8.5zM787 477q-3 0 -7 1q-13 2 -20 13.5t-4 24.5q4 18 4 37
q0 75 -57 128t-137 53q-68 0 -120.5 -38.5t-68.5 -99.5q-4 -13 -15.5 -19.5t-24 -3t-19.5 15t-3 23.5q21 83 91 134.5t160 51.5q107 0 182.5 -71.5t75.5 -173.5q0 -26 -6 -51q-2 -11 -11 -18t-20 -7zM833 143q-13 0 -22.5 9.5t-9.5 23t9.5 22.5t22.5 9q54 0 92 40t38 96.5
t-38 96.5t-92 40q-19 0 -37 -6q-13 -4 -24.5 2.5t-15.5 19t2 24t19 15.5q27 9 56 9q80 0 137 -59t57 -141.5t-57 -141.5t-137 -59z" />
    <glyph glyph-name="uniE61A" unicode="&#xe61a;" 
d="M136 612l378 -376l376 373q11 12 28 12t29 -12t12 -28.5t-12 -28.5l-395 -392q-11 -12 -27 -12q-26 -13 -47 8l-401 398q-12 12 -12 29t12 29t29 12t30 -12z" />
    <glyph glyph-name="uniE61B" unicode="&#xe61b;" 
d="M90 87v618q0 47 33 80t80 33h618q47 0 80 -33t33 -80v-618q0 -47 -33 -80t-80 -33h-618q-47 0 -80 33t-33 80zM147 87q0 -24 16.5 -40t39.5 -16h618q24 0 40 16t16 40v618q0 23 -16 39.5t-40 16.5h-618q-23 0 -39.5 -16.5t-16.5 -39.5v-618zM211.5 488q-8.5 8 -8.5 20
t9 20l168 168q8 9 20 9t20 -9l169 -168q8 -8 8 -20t-8.5 -20t-20 -8t-19.5 8l-121 121v-466h309q12 0 20 -8t8 -20t-8 -20t-20 -8h-335l-1 -1h-1q-12 0 -20 8.5t-8 20.5v1v1v492l-121 -121q-8 -8 -19.5 -8t-20 8z" />
    <glyph glyph-name="uniE61C" unicode="&#xe61c;" 
d="M280 403zM705 571zM571 697zM678 510h-350v213h71q9 36 38 59t66 23t66 -23t38 -59h71v-213zM377 559h252v115h-69v25q0 23 -16.5 40t-40.5 17t-40.5 -17t-16.5 -40v-25h-69v-115zM742 -36h-464q-56 0 -95 39t-39 94v465q0 55 39 94.5t95 39.5h99v-137h252v137h113
q55 0 94.5 -39.5t39.5 -94.5v-465q0 -55 -39.5 -94t-94.5 -39zM278 647q-36 0 -60.5 -25t-24.5 -60v-465q0 -35 24.5 -59.5t60.5 -24.5h464q35 0 60 24.5t25 59.5v465q0 35 -25 60t-60 25h-64v-137h-350v137h-50zM305 423h410v-50h-410v50zM305 177h410v-49h-410v49z
M305 300h410v-50h-410v50z" />
    <glyph glyph-name="uniE61D" unicode="&#xe61d;" horiz-adv-x="1061" 
d="M126 842h591q14 0 47.5 1t53 1t45 -2.5t42.5 -10.5t26 -21q6 -8 10 -19t6 -20t3 -25.5t1 -25t-0.5 -29.5t-0.5 -28v-316q0 -1 -7.5 -7t-11.5 -9q-14 0 -24 4.5t-14.5 10.5t-6.5 18.5t-1.5 21.5t1 26.5t0.5 27.5v306q-3 5 -6 20q-20 11 -51.5 14t-90.5 0.5t-66 -2.5h-344
q-15 0 -49 0.5t-54 0.5t-47 -1.5t-45 -5.5q-11 -20 -14.5 -51.5t-1 -90.5t2.5 -66v-345q0 -14 -0.5 -48t-0.5 -54t1.5 -47t5.5 -45q6 -4 12.5 -6t15.5 -3l15 -3q6 -1 18 -1h17h19h18h227q8 0 31.5 1t38 1t30.5 -3.5t21 -11.5q10 -13 5 -30t-17 -21h-451q-18 5 -31.5 14.5
t-21.5 25t-12 29.5t-5.5 37.5t-1.5 40.5t1 46t1 46v416q0 11 -2.5 54.5t-1.5 76t7.5 48t16 25t26 19.5t24.5 16zM328 619h383q1 -2 4 -5.5t3.5 -4.5t2.5 -4.5t2.5 -5t1.5 -5t1 -6.5t0.5 -7.5t0.5 -9.5q-12 -9 -27.5 -13t-25 -4.5t-36 0.5t-36.5 1h-274q-1 1 -4 5t-3.5 4.5
t-3 4t-2.5 5t-1.5 5t-1.5 6.5t-0.5 7.5t0.5 10.5q9 6 16 16zM328 427h383q1 -1 4 -5t3.5 -5t2.5 -4t2.5 -4.5t1.5 -5t1 -6.5t0.5 -7.5t0.5 -10.5q-12 -8 -27.5 -12t-25 -4.5t-36 0t-36.5 0.5h-274q-1 1 -4 5t-3.5 5t-3 4t-2.5 4.5t-1.5 5t-1.5 6.5t-0.5 8t0.5 10q9 6 16 16z
M966 267h32q1 -1 4 -5t3.5 -4.5t2.5 -4t2.5 -5t1.5 -5t1.5 -6.5t0.5 -7v-11q-11 -9 -21 -22t-22 -31.5t-17 -25.5q-20 -27 -63 -77.5t-62 -76.5q-5 -6 -15 -23t-16.5 -24.5t-21 -15t-33.5 -7.5q-10 13 -36.5 36.5t-49 43t-40.5 46.5t-18 50q1 0 5 3t5 4t4 3t4.5 2t5 1.5
t6.5 1.5t7.5 0.5t10.5 0.5q11 -14 56.5 -58t55.5 -48q6 11 21.5 28t19.5 23l60 81l62 82q6 8 22 25t22 26zM328 235h383q1 -1 4 -5t3.5 -4.5t2.5 -4t2.5 -5t1.5 -5t1 -6.5t0.5 -7.5t0.5 -10.5q-12 -8 -27.5 -12t-25 -4.5t-36 0t-36.5 0.5h-274q-1 2 -4 5.5t-3.5 4.5t-3 4.5
t-2.5 5t-1.5 5t-1.5 6.5t-0.5 7.5t0.5 9.5q9 7 16 16z" />
    <glyph glyph-name="uniE61E" unicode="&#xe61e;" horiz-adv-x="1059" 
d="M94 896h584h131h37q22 0 30 -2q24 -7 45 -23q3 -2 7 -7l3 -3q9 -11 9 -12q9 -14 15 -41q1 -3 1 -24v-47v-127v-148v-48q-2 -9 -4 -13q-7 -10 -18 -15q-12 -5 -24 0.5t-18 14.5q-3 4 -4 11t-1 12t0.5 15.5t0.5 13.5v271v50q0 30 -8 40q-3 4 -4 5q-8 6 -18 8q-6 1 -12 1
h-27h-112h-451h-122h-21q-10 0 -11 -1h-4h-4q-13 -4 -19 -14q-7 -9 -7 -53v-115v-450v-121q0 -37 2 -41q4 -12 13 -18t41 -6h75h301h32q15 0 16 -1q8 -2 15 -7t10.5 -16t-0.5 -23q-5 -14 -19 -20q-5 -2 -46 -2h-98h-211h-76q-35 0 -43 2q-52 15 -72 61q-3 6 -4.5 13.5
t-2.5 18t-1 16.5v21v18v158v404v108v42q1 2 1 5.5t1 4.5q4 17 7 24q16 36 56 53q3 2 19 6h5q4 0 5 1zM303 657h320h46q20 0 22 -1q14 -4 21 -16q7 -11 5 -22q-5 -22 -23 -28q-4 -1 -29 -1h-55h-215h-65h-31q-20 6 -25 29q-2 7 0 13q2 7 4 11q6 8 16 13q1 0 4 0.5t5 1.5z
M303 452h320h46h22q14 -4 21 -16t5 -23q-5 -22 -23 -28q-4 -1 -29 -1h-55h-215h-65q-29 0 -31 1q-20 6 -25 28q-2 7 0 14q2 6 4 10q6 9 16 13q1 0 4 0.5t5 1.5zM777 322q57 1 102 -27q34 -22 56 -56q8 -13 10 -19q1 -2 3 -6.5t2 -6.5q8 -19 11 -43.5t-2 -48.5q-1 -3 -1.5 -8
t-1.5 -8q-9 -28 -14 -37q-4 -5 -13 -20q4 0 8.5 -2.5t6.5 -4t7 -7.5l5 -5l44 -44q2 -2 6 -5.5t6.5 -6t5 -6t4.5 -7.5q4 -11 1 -22.5t-10 -17t-14 -7.5q-14 -4 -28 4q-2 1 -10 10l-18 18l-33 33q-1 1 -4.5 4t-6.5 6l-5 5q-3 5 -5 10v2t-1 3q0 -1 -9 -6q-11 -7 -19 -11
q-14 -6 -29 -11q-4 -1 -11.5 -2t-10.5 -2q-2 -1 -7 -1h-8q-9 -2 -17 0h-10q-4 1 -13.5 2.5t-14.5 2.5q-19 7 -30 11q-9 5 -28 18q-45 32 -64 88l-7 30v8q0 5 -1 7q-3 13 1 27q0 3 0.5 7.5t1.5 6.5q7 29 10 37q29 65 94 94q9 4 39 11q2 0 7.5 1t8.5 1h3q2 0 3 1zM778 253
q-6 -1 -13 -2q-16 -4 -21 -6q-42 -18 -60 -62q-1 -2 -6 -22t3 -44l6 -18q16 -35 54 -52q10 -5 24 -8q2 -1 7 -1h6q8 -2 14 -1q1 1 4 1h6q19 5 21 6q44 18 62 58q2 6 6 23q1 2 1 6.5t1 6.5q2 10 -1 21q-5 21 -7 28q-22 49 -79 64q-7 2 -28 2zM303 247h183h22h13q13 -4 21 -16
q7 -12 4 -22q-5 -23 -25 -29q-3 -1 -17 -1h-34h-112h-40q-21 0 -28 4q-8 6 -14 16.5t-2 22.5q2 7 7 14q5 6 14 10q3 0 8 1z" />
    <glyph glyph-name="uniE61F" unicode="&#xe61f;" 
d="M764 -62h-617q-34 0 -59 24.5t-25 58.5v615q0 35 25 59.5t59 24.5h617q35 0 59.5 -24.5t24.5 -59.5v-615q0 -34 -24.5 -58.5t-59.5 -24.5zM792 636q0 12 -8.5 20t-19.5 8h-617q-11 0 -19.5 -8t-8.5 -20v-139h673v139zM792 441h-673v-420q0 -11 8.5 -19.5t19.5 -8.5h617
q11 0 19.5 8.5t8.5 19.5v420zM652 553v55h56v-55h-56zM568 553h-364q-12 0 -20 8t-8 19.5t8 19.5t20 8h364q11 0 19.5 -8t8.5 -19.5t-8.5 -19.5t-19.5 -8zM876 49v56q11 0 19.5 8.5t8.5 19.5v615q0 12 -8.5 20t-19.5 8h-616q-12 0 -20 -8t-8 -20h-56q0 35 24.5 59.5
t59.5 24.5h616q35 0 59.5 -24.5t24.5 -59.5v-615q0 -34 -24.5 -59t-59.5 -25z" />
    <glyph glyph-name="uniE620" unicode="&#xe620;" 
d="M777.5 446q-94.5 0 -161 -66.5t-66.5 -161t66.5 -161.5t161 -67t161 67t66.5 161.5t-66.5 161t-161 66.5zM779.5 53q-71.5 0 -121.5 48.5t-50 117t50 117t121.5 48.5t122 -48.5t50.5 -117t-50.5 -117t-122 -48.5zM749 135h-63v42h63v21h-63v40h47l-44 77l-6 10l46 20
l50 -91l55 91l42 -25l-51 -82h49l-1 -41h-62v-20h63v-41h-63v-72h-62v71zM749 135zM624 52h-474q-9 0 -16 7t-7 16v85q0 10 7 16.5t16 6.5h165h196h43q-2 17 -2 35q0 29 7 57q-18 19 -26.5 37.5t-10 32.5t6 34.5t14 32t21.5 34.5q5 9 8 13q11 15 19 29v0q25 46 25 98
q0 84 -60 144t-144.5 60t-144.5 -60t-60 -144q0 -71 43 -126l17 -26q11 -16 17.5 -25t14 -24t9.5 -25.5t1.5 -25.5t-8 -28t-21 -28.5t-34.5 -31.5h-162q-14 0 -24.5 -13.5t-10.5 -28.5v-172q0 -15 10 -25t25 -10h643q-59 14 -103 55zM287 578q0 56 34 92t89 36
q54 0 90.5 -39.5t36.5 -95.5q0 -34 -16 -63q-8 -14 -13 -20q-29 -34 -43 -64.5t-12.5 -61t9.5 -56t26 -62.5h-149q15 26 21.5 40t14 35.5t6 38t-7.5 38.5t-21.5 46.5t-40.5 52.5q-24 30 -24 83z" />
    <glyph glyph-name="uniE621" unicode="&#xe621;" 
d="M593 405l-39 51q67 52 67 137q0 72 -50.5 123t-122.5 51t-122.5 -51t-50.5 -123q0 -85 67 -137l-39 -51q-44 34 -68 83.5t-24 104.5q0 98 69.5 168t167.5 70t167.5 -70t69.5 -168q0 -55 -24 -104.5t-68 -83.5zM651 356q-8 0 -16 4q-9 6 -23 15q-30 19 -48 25
q-13 4 -19 15.5t-2 24.5t15.5 19t24.5 2q27 -8 64 -32q14 -9 21 -13q11 -7 14.5 -20t-3.5 -24q-9 -16 -28 -16zM56.5 8q-13.5 0 -22.5 9.5t-9 22.5q0 159 75.5 269t212.5 152q13 4 24.5 -2t15.5 -19t-2 -24.5t-19 -15.5q-118 -36 -180.5 -129t-62.5 -231q0 -13 -9.5 -22.5
t-23 -9.5zM739.5 -54q-101.5 0 -173.5 72t-72 173.5t72 174t173.5 72.5t174 -72.5t72.5 -174t-72.5 -173.5t-174 -72zM739.5 374q-75.5 0 -128.5 -53.5t-53 -129t53 -128.5t128.5 -53t129 53t53.5 128.5t-53.5 129t-129 53.5zM815 326l-75 -75l-75 75q-6 5 -13.5 5
t-12.5 -5.5t-5 -13t5 -12.5l66 -65h-42q-7 0 -12.5 -5t-5.5 -12.5t5.5 -13t12.5 -5.5h59v-33h-59q-7 0 -12.5 -5t-5.5 -12.5t5.5 -13t12.5 -5.5h59v-59q0 -8 5 -13t12.5 -5t13 5t5.5 13v59h58q7 0 12.5 5.5t5.5 13t-5.5 12.5t-12.5 5h-58v33h58q7 0 12.5 5.5t5.5 13
t-5.5 12.5t-12.5 5h-42l66 65q5 5 5 12.5t-5 13t-12.5 5.5t-12.5 -5z" />
    <glyph glyph-name="uniE622" unicode="&#xe622;" 
d="M792 240q74 0 126.5 -52.5t52.5 -127t-52.5 -126.5t-126.5 -52t-126.5 52t-52.5 126.5t52.5 127t126.5 52.5zM881 78v68l-115 -102l-63 56v-68l63 -57zM192 -3q-27 0 -46.5 19t-19.5 46v684q0 27 19.5 46.5t46.5 19.5h558q27 0 46 -19.5t19 -46.5v-454q39 -5 73 -22v484
q0 54 -38.5 92.5t-92.5 38.5h-573q-54 0 -92.5 -38.5t-38.5 -92.5v-699q0 -54 38.5 -92.5t92.5 -38.5h425q-26 33 -39 73h-378zM623 722l-154 -269q-7 16 -28 51.5t-57 97t-69 120.5h-73l168 -285h-143v-58h166v-92h-166v-53h166v-137h67v137h160v53h-161v92h161v58h-132
l166 285h-71z" />
    <glyph glyph-name="uniE623" unicode="&#xe623;" 
d="M902 23q-10 -9 -23 -9h-98q-13 0 -22.5 9.5t-9.5 22.5v130q0 13 9.5 23t23 10t23 -10t9.5 -23v-97h65q13 0 22.5 -9.5t9.5 -23t-9 -23.5zM957 130q-14 32 -38.5 56.5t-57 38.5t-68.5 14q-38 0 -70.5 -14t-56.5 -38.5t-38.5 -57t-14.5 -68.5q0 -37 14.5 -69.5t38.5 -57
t56.5 -38.5t70.5 -14q36 0 68.5 14t57 38.5t38.5 57t14 69.5q0 36 -14 69zM192 -3q-27 0 -46.5 19.5t-19.5 46.5v684q0 27 19.5 46t46.5 19h558q27 0 46 -19t19 -46v-455q39 -4 73 -21v483q0 54 -38.5 92.5t-92.5 38.5h-573q-54 0 -92.5 -38.5t-38.5 -92.5v-699
q0 -54 38.5 -92.5t92.5 -38.5h425q-26 33 -39 73h-378zM623 722h71l-166 -285h132v-57h-161v-92h161v-54h-160v-136h-67v136h-166v54h166v92h-166v57h142l-167 285h73q33 -59 69 -120.5t57 -97t28 -51.5z" />
    <glyph glyph-name="uniE624" unicode="&#xe624;" 
d="M512 896q-138 0 -256 -69t-187 -187t-69 -256t69 -256t187 -187t256 -69t256 69t187 187t69 256t-69 256t-187 187t-256 69zM512 -43q-118 0 -216 56.5t-154.5 154.5t-56.5 216t56.5 216t154.5 154.5t216 56.5t216 -56.5t154.5 -154.5t56.5 -216t-56.5 -216
t-154.5 -154.5t-216 -56.5zM725.5 597.5q-12.5 12.5 -30 12.5t-29.5 -13l-154 -153l-154 153q-12 13 -29.5 13t-30 -12.5t-12.5 -30t13 -29.5l153 -154l-153 -154q-13 -12 -13 -29.5t12.5 -30t30 -12.5t29.5 13l154 153l154 -153q12 -13 29.5 -13t30 12.5t12.5 30t-13 29.5
l-153 154l153 154q13 12 13 29.5t-12.5 30z" />
    <glyph glyph-name="uniE625" unicode="&#xe625;" 
d="M512 866q-101 0 -193 -39.5t-158.5 -105.5t-106 -158t-39.5 -193t39.5 -193t106 -158.5t158.5 -106t193 -39.5t192.5 39.5t158 106t106 158.5t39.5 193t-39.5 193t-106 158t-158 105.5t-192.5 39.5zM510.5 -36q-110.5 0 -204 54t-148 148t-54.5 204.5t54.5 204t148 148
t204 54.5t204.5 -54.5t148.5 -148t54.5 -204t-54.5 -204.5t-148.5 -148t-204.5 -54zM707 492l-241 -240l-149 149q-13 14 -32 14t-32 -13.5t-13 -32t13 -31.5l172 -170q3 -7 8 -12q11 -11 28 -13q22 -4 38 12q6 5 9 12l262 263q13 13 13.5 31t-12.5 31.5t-32 13.5t-32 -14z
" />
    <glyph glyph-name="uniE626" unicode="&#xe626;" 
d="M625 375q12 0 20 8t8 20t-8 20t-20 8h-88v14l107 90q8 8 8 20t-8.5 20t-20.5 7.5t-20 -8.5l-92 -75l-96 75q-9 9 -21 9t-20.5 -8.5t-8.5 -20t8 -19.5l107 -86v-18h-85q-12 0 -20.5 -8t-8.5 -20t8.5 -20t20.5 -8h85v-38h-85q-12 0 -20.5 -8t-8.5 -20t8.5 -20t20.5 -8h85
v-65q0 -12 8.5 -20.5t20 -8.5t20 8.5t8.5 20.5v65h88q12 0 20 8t8 20t-8 20t-20 8h-88v38h88zM511 -52q11 0 18 7q15 9 42 25.5t42 25.5q4 3 13 9q41 25 62.5 38.5t56.5 40t56 48.5t44 54.5t37 67.5q29 70 29 145v251q0 24 -29 36l-364 123q-10 6 -21 0l-364 -123
q-25 -13 -25 -36v-251q0 -76 29 -145q14 -35 36.5 -67.5t44 -54.5t56.5 -48.5t56.5 -40t61.5 -38.5q9 -6 14 -9q40 -20 83 -51q15 -7 22 -7zM184 634l327 109l327 -109v-225q0 -65 -22 -120q-12 -29 -32.5 -56.5t-40 -47t-52 -43t-54 -37t-60.5 -37.5q-11 -7 -33 -20
t-33 -20q-11 7 -32.5 20t-32.5 20q-47 27 -76 45.5t-64.5 46.5t-59.5 59.5t-40 69.5q-22 55 -22 120v225z" />
    <glyph glyph-name="uniE627" unicode="&#xe627;" 
d="M485 206v-104h59v104q36 18 36 57q0 27 -19 46.5t-46 19.5t-46.5 -19.5t-19.5 -46.5q0 -39 36 -57zM797 491h-20v81q0 108 -77 185t-185.5 77t-185 -77t-76.5 -185v-81h-142v-545h807v545h-121zM293 572q0 92 65 157t156.5 65t156.5 -65t65 -157v-81h-443v81zM880 -13
h-729v462h729v-462z" />
    <glyph glyph-name="uniE628" unicode="&#xe628;" 
d="M519 895l-418 -372h836zM519 -127l418 371h-836z" />
    <glyph glyph-name="uniE629" unicode="&#xe629;" 
d="M505 286q18 0 29 -10l157 -144l3 -3l9 -8l3 -3q1 -1 3 -2q4 -4 17 -16.5t17 -15.5l12 -11q1 -1 3 -2.5t3 -2.5l41 -38l3 -3q7 -6 21.5 -19.5t21.5 -20.5l36 -32l2 -1l2 -3q1 -1 1 -2h-753l6 6l25 24l1 1l2 2l7 6l16 15q4 4 22.5 21.5t22.5 20.5l46 43l3 3q2 2 2 3
q1 1 3 2.5t3 2.5q4 4 14 13.5t14 13.5q1 1 3 2.5t3 2.5l11 11q2 1 6.5 3.5t6.5 5.5q0 1 1.5 3.5t2.5 3.5l46 42q1 2 3 3.5t3 2.5q1 2 5 5t6 5l11 11l1 1l2 2l6 5q0 1 1 1.5t2 1.5l33 32q3 1 7 5t6 5.5t6.5 3.5t9.5 2zM742 167q1 2 4 4l2 2q1 1 3 2.5t3 2.5l3 3l14 13
q6 5 24 21t23 21q3 3 14.5 13t14.5 13q1 1 3 2.5t3 3t3 3t3 2.5t3 2.5t3 2.5l18 16l1 2q1 0 2 0.5t2 1.5q0 1 1 1l35 32q4 4 6 5v-341q-2 1 -11 10l-56 51l-2 2l-1 1l-41 38q-1 1 -3 2.5t-3 2.5zM92 -8v350q3 -2 6 -5q1 -1 3 -2.5t3 -2.5l60 -53q0 -1 1 -1.5t2 -1.5
q3 -3 11.5 -11t11.5 -11l33 -29q1 -1 3 -2.5t3 -2.5t3 -2.5t3 -2.5l6 -6q1 0 1.5 -1t1.5 -1l3 -3l3 -3l15 -13q1 -1 9 -8t9 -9q-3 -4 -18 -16l-166 -157h-1l-6 -6v0zM328 214l-18 15q-4 4 -16 14t-16 14l-6 7v414h479v-420q0 -1 -4.5 -5t-9.5 -8.5t-6 -5.5l-27 -24
q-1 0 -4 -3l-3 -3l-73 67q-5 5 -18.5 17t-18.5 17q-14 15 -27 23q-26 16 -57 14t-55 -21l-35 -33q-3 -3 -12.5 -11.5t-12.5 -11.5l-30 -28l-2 -2l-3 -3l-10 -9l-5 -5q-1 -1 -4.5 -4t-5.5 -5zM811 312v213q4 -3 14 -13l3 -3v-1l11 -10q30 -30 34 -35l4 -5h1v-2h1h1v-1
q3 -3 13 -13.5t19 -19.5l10 -10l-5 -5q-4 -4 -9.5 -8.5t-5.5 -5.5l-7 -6l-3 -3l-35 -31l-4 -4l-10 -9q-1 0 -2 -1.5t-2 -1.5q-1 -2 -3 -3.5t-4 -2.5l-2 -2q-1 -1 -1 -2q-1 0 -2 -1l-2 -2zM103 415q1 0 7 6l17 17q1 1 2 1.5t2 1.5q3 3 10.5 11t10.5 11l4 3q2 2 28 28.5
t27 27.5v-204q-2 2 -10 9t-10 9q-1 0 -2 1t-1 2l-44 39q-1 1 -2 1.5t-2 1.5l-24 21q0 1 -6 6t-7 7v0zM511 800q3 0 6 -0.5t5 -1t4.5 -2t3 -2t4 -3t3.5 -3.5l28 -24q2 -1 5 -3.5t4 -4.5l15 -12l4 -4h-160q2 3 14 12l41 36q15 12 23 12zM32 410v-467q0 -9 6 -21q3 -6 8 -12
q18 -22 41 -22h849q8 0 20 6h1l1 1q5 2 9 6l8 7q6 8 11 19q4 8 4 26v420q0 27 1 30q1 11 -5.5 24.5t-15.5 21.5l-41 41q-80 82 -85 87l-1 1l-1 2q-1 0 -1 1l-4 3q0 1 -0.5 1t-0.5 1q-1 1 -1.5 1t-0.5 1l-21 21l-1 1l-1 1v68v13v12q0 2 -0.5 8t-2 9t-4 6.5t-6.5 6.5
q-8 6 -28 6h-69q-2 0 -6 -0.5t-5.5 -0.5t-4 1.5t-4.5 3.5l-14 12q-2 2 -8.5 7.5t-9.5 8.5t-9.5 8t-9.5 8q-1 1 -23 20q-4 3 -5 4t-4 3.5t-4 3.5t-4.5 4t-5.5 4l-8 8q-6 6 -10 8q-22 16 -51.5 16.5t-52.5 -14.5q-9 -6 -23.5 -19.5t-19.5 -17.5l-35 -30q-5 -5 -14.5 -13
t-12.5 -11q-6 -5 -8 -7q-1 0 -3.5 -3t-4.5 -4q-3 -1 -52.5 0t-58.5 -3q-12 -5 -15.5 -14.5t-3.5 -25.5v-87q0 -1 -7 -8q-1 -1 -7 -8l-87 -87q-5 -5 -15.5 -16t-19 -20t-15.5 -16q-1 0 -4 -3q-24 -18 -24 -42v0z" />
    <glyph glyph-name="uniE62A" unicode="&#xe62a;" 
d="M175 206l336 357l337 -357h-673zM849 151h-1h-673q-17 0 -31 9t-20 24q-14 33 10 60l337 357q16 16 40.5 16t40.5 -16l331 -351q22 -17 22 -44q0 -23 -16.5 -39t-39.5 -16zM303 261h417l-209 221z" />
    <glyph glyph-name="uniE62B" unicode="&#xe62b;" 
d="M849 562l-336 -357l-337 357h673zM175 617h1h673q17 0 31 -9t20 -24q14 -33 -10 -60l-337 -357q-16 -16 -40.5 -16t-40.5 16l-331 351q-22 17 -22 44q0 23 16.5 39t39.5 16zM721 507h-417l209 -221z" />
    <glyph glyph-name="uniE62C" unicode="&#xe62c;" 
d="M512 832q-91 0 -174 -35.5t-143 -95.5t-95.5 -142.5t-35.5 -174t35.5 -174.5t95.5 -143t143 -95.5t174 -35.5t174 35.5t143 95.5t95.5 143t35.5 174.5t-35.5 174t-95.5 142.5t-143 95.5t-174 35.5zM726 339h-428q-19 0 -32.5 13t-13.5 32t13.5 32.5t32.5 13.5h428
q19 0 32.5 -13.5t13.5 -32.5t-13.5 -32t-32.5 -13z" />
    <glyph glyph-name="uniE62D" unicode="&#xe62d;" 
d="M280 403zM705 571zM571 697zM675 511h-349v212h71q9 35 37.5 58.5t66 23.5t66 -23.5t37.5 -58.5h71v-212zM375 560h251v114h-68v25q0 23 -17 40t-40.5 17t-40.5 -17t-17 -40v-25h-68v-114zM739 -33h-170v49h170q34 0 59 24.5t25 59.5v463q0 34 -25 59t-59 25h-64v-136
h-349v136h-50q-35 0 -59.5 -25t-24.5 -59v-327h-49v327q0 55 39 94t94 39h99v-136h251v136h113q55 0 94 -39t39 -94v-463q0 -55 -39 -94t-94 -39zM541 315h191v-49h-191v49zM541 424h191v-49h-191v49zM359 155q-60 0 -102.5 47.5t-42.5 114t42.5 114t102.5 47.5t103 -47
t43 -114t-43 -114.5t-103 -47.5zM359.5 429q-39.5 0 -68 -33t-28.5 -79.5t28.5 -79.5t68 -33t68 33t28.5 79.5t-28.5 79.5t-68 33zM424 -24h-130q-31 0 -54.5 10.5t-35.5 27.5t-17.5 33.5t-6.5 31.5v47q0 21 8.5 41t19 32.5t24 24t19.5 15t10 5.5l22 -43q-2 -2 -5.5 -4
t-13 -9.5t-16.5 -15.5t-13 -20.5t-6 -25.5v-46q0 -6 2 -13t8 -17.5t20.5 -17.5t34.5 -7h130q22 0 36.5 7.5t20 18.5t7.5 18t2 12v45q0 13 -6 25.5t-13 20.5t-16.5 15.5t-13 9.5t-5.5 4l22 43q4 -2 10 -5.5t19.5 -15t24 -24t19 -32.5t8.5 -41v-46q-1 -15 -6.5 -31.5t-18 -34
t-36 -28t-54.5 -10.5z" />
    <glyph glyph-name="uniE62E" unicode="&#xe62e;" 
d="M134 812v-856h92l428 428l-428 428h-92zM732 812h158v-856h-158v856z" />
    <glyph glyph-name="uniE62F" unicode="&#xe62f;" 
d="M890 -44v856h-92l-428 -428l428 -428h92zM134 812h158v-856h-158v856z" />
    <glyph glyph-name="uniE630" unicode="&#xe630;" 
d="M830 820h-618q-64 0 -109 -45t-45 -108v-609q0 -63 45 -108t109 -45h618q63 0 108 45t45 108v609q0 63 -45 108t-108 45zM284 760h473v-339h-473v339zM923 58q0 -38 -27.5 -65.5t-65.5 -27.5h-618q-39 0 -66.5 27.5t-27.5 65.5v609q0 39 27.5 66t66.5 27v1h13v-400h592
v400h13q38 0 65.5 -27.5t27.5 -66.5v-609zM609 672h60v-199h-60v199z" />
    <glyph glyph-name="uniE631" unicode="&#xe631;" 
d="M716 376zM838 -43h-640q-42 0 -80.5 38.5t-38.5 80.5v549q0 40 36 64t83 24h351q17 0 29.5 -12.5t12.5 -30t-12.5 -30.5t-29.5 -13h-351q-28 0 -34 -5l1 -546q0 -7 12 -20t21 -13h636q7 11 7 33v335q0 18 12.5 30.5t30.5 12.5q17 0 29.5 -12.5t12.5 -30.5v-335
q0 -53 -26.5 -86t-61.5 -33zM455 176q-14 0 -25.5 8.5t-15.5 21.5q-2 8 -5 21.5t-6.5 51.5t0 74t20 82t46.5 82q107 127 356 121l-139 139q-13 13 -13 30.5t13 30.5q12 12 30 12t30 -12l246 -246l-247 -218q-14 -11 -32 -10t-29 14q-12 13 -10.5 31t14.5 30l129 113
q-203 4 -282 -90q-26 -30 -38 -69.5t-10.5 -75.5t4 -55t5.5 -32q5 -16 -3.5 -32t-25.5 -21q-6 -1 -12 -1z" />
    <glyph glyph-name="uniE632" unicode="&#xe632;" 
d="M640 796h11q18 -9 19 -10q244 -118 304 -147q1 -1 18 -14v-10q-15 -12 -16 -12q-2 -1 -29 -14l-25 -12q47 -23 53 -26q1 -1 17 -13v-11q-18 -13 -19 -13q-2 -1 -36 -17q-1 -1 -18 -9q50 -24 56 -27q1 -1 17 -13v-11q-17 -13 -18 -13q-1 -1 -32 -15q-2 -1 -23 -11l56 -28
q1 0 17 -12v-12q-16 -11 -17 -12q-1 0 -30 -14l-26 -13q49 -24 56 -27q1 0 17 -13v-11q-17 -12 -18 -13q-52 -25 -272 -128q-33 -16 -304 -144h-12l-5 3q-5 2 -7 4q-246 131 -327 175q-1 1 -15 13v10q16 12 17 12q6 3 56 24q-8 5 -9 5q-46 25 -49 27q-1 0 -15 12v10
q16 12 17 13q6 2 55 23q-7 5 -8 5q-46 25 -49 27q-1 0 -15 12v10q16 12 17 13q2 1 34 15q1 0 22 9q-51 27 -57 31q-1 0 -16 13v9q16 13 17 13q6 3 53 23q-48 25 -54 29q-1 0 -16 13v11l15 11q40 17 394 166q10 4 199 84zM289 600q216 -121 276 -154q15 -8 14 -22v-320l1 -7
l9 4q150 70 182 85q9 4 9 13q-1 173 0 323q0 10 -10 15q-121 67 -273 152q-8 5 -17 1q-31 -13 -191 -80q0 -1 -9 -5q8 -4 9 -5zM94 527l5 -3q238 -128 288 -155q6 -3 13 1q16 8 83 39q4 2 40 19q-5 4 -6 4q-233 130 -273 152q-6 4 -13 1q-19 -8 -130 -55zM930 620l-4 2
q-194 95 -277 135q-5 2 -12 -1q-20 -8 -93 -39l-13 -6l6 -3q209 -117 259 -145q7 -3 14 0q12 6 113 54zM93 169q211 -114 295 -158q5 -3 10 0q59 27 135 63q6 3 6 6v48q-10 -4 -10 -5q-104 -48 -121 -57q-16 -8 -32 1q-78 42 -224 120q-7 3 -10 2q-8 -3 -49 -20zM539 218
l-10 -4q-102 -49 -122 -58q-15 -7 -31 1q-9 5 -88.5 47.5t-120.5 65.5q-25 14 -45 1q-1 0 -29 -12q211 -113 295 -158q5 -2 10 0q60 28 135 64q6 2 6 5v48zM539 309q-10 -5 -11 -5q-102 -48 -121 -58q-15 -7 -30 1q-8 4 -86.5 46t-118.5 65q-31 17 -55 2q-1 -1 -24 -11
q209 -111 295 -158q5 -2 9 0q64 30 137 64q5 3 5 6v48zM94 440l7 -4q228 -123 285 -153q7 -4 14 0q95 45 115 53q29 12 24 37v23q-11 -5 -12 -6q-100 -47 -122 -57q-14 -7 -26 0q-4 3 -42 23q-139 74 -188 100q-7 4 -10 3q-8 -3 -45 -19zM931 443q-41 20 -51 24q-3 1 -7 -1
q-22 -10 -49 -23q-4 -2 -4 -4q-1 -10 -1 -49q23 11 63 29.5t49 23.5zM819 300q62 29 112 52q-41 20 -50 25q-4 1 -8 -1q-26 -12 -49 -23q-4 -2 -4 -6q-1 -8 -1 -47zM819 209q79 37 112 53q-41 20 -50 24q-4 2 -9 -1q-26 -12 -47 -22q-5 -3 -5 -7q-1 -8 -1 -47zM819 480
q46 22 112 53q-39 19 -48 23q-2 1 -7 -1q-29 -13 -52 -25q-4 -2 -4 -5q-1 -8 -1 -45zM615 537q5 -2 14 -7t15 -8q-4 -2 -9.5 -5.5t-6.5 -4.5q-21 11 -23 12q-6 3 -12 0q-17 -7 -31 -11q-13 -3 -17 -2t-11 12q31 8 34 9q12 5 22 12t8.5 15t-13.5 14q-16 7 -40 3q-9 -2 -28 -6
t-29 -5q-27 -5 -48 2q-49 16 -16 51q-4 2 -13.5 7t-13.5 7q10 8 13.5 8.5t14.5 -5.5q16 -9 29 -1q3 2 16 6q12 3 15.5 1.5t9.5 -11.5q-18 -5 -19 -5q-21 -9 -30 -15q-8 -6 -7 -12.5t11 -11.5q14 -7 33 -3q7 1 30.5 5.5t36.5 6.5q25 4 50 -5q47 -18 15 -53z" />
    <glyph glyph-name="uniE633" unicode="&#xe633;" 
d="M201 731.5q0 42.5 30 72.5t72.5 30t72.5 -30t30 -72.5t-30 -72.5t-72.5 -30t-72.5 30t-30 72.5zM509 512q-2 27 -20.5 47t-45.5 24l-73 11l-45 -103l-6 50q0 3 -3 3h-25q-3 0 -4 -3l-5 -52l-46 105l-72 -11q-27 -4 -45.5 -24t-21.5 -47l-22 -257h71l12 174l15 -118
l-7 -119h15v-267h95l15 267h17l15 -267h95v267h23l-8 119l16 118l12 -174h71zM272 590q0 -14 12 -27q5 -4 19.5 -4t18.5 4q13 13 13 27q0 13 -31.5 13t-31.5 -13zM759 400q-7 19 -24.5 35t-43.5 23v16q0 11 -8 19t-19.5 8t-19.5 -8t-8 -19v-17q-25 -8 -41.5 -27t-19.5 -45
q-3 -30 18 -57.5t65 -36.5q19 -4 29.5 -13t9.5 -21q-1 -11 -10 -18.5t-24 -7.5q-17 0 -28 6.5t-15 16.5q-3 11 -13.5 16t-21 1.5t-16 -14t-1.5 -21.5q6 -19 23.5 -35t44.5 -22v-16q0 -12 8 -20t19.5 -8t19.5 8t8 20v17q25 7 41.5 26.5t19.5 44.5q3 31 -18 58t-65 36
q-20 4 -30 13.5t-9 21.5q1 10 10 18t23 8q36 0 43 -23q4 -11 14 -16t21 -1.5t16 13.5t2 21zM658 614q-74 0 -138 -35q15 -19 22 -42q54 29 116 29q100 0 171.5 -71.5t71.5 -172t-71.5 -172t-171.5 -71.5q-106 0 -178 77l-26 -42q85 -83 204 -83q120 0 205.5 85.5t85.5 206
t-85.5 206t-205.5 85.5z" />
    <glyph glyph-name="uniE634" unicode="&#xe634;" horiz-adv-x="1000" 
d="M877 -45q0 1 1 2l2 2q3 5 4 11l107 409q0 23 -4.5 36t-14.5 18.5t-18 6.5t-26 1h-62v124q0 22 -6.5 36t-18.5 19t-19 6.5t-18 1.5h-497q-20 0 -28.5 -15.5t0 -31.5t28.5 -16h497v-124h-621q-62 0 -62 -62l-61 -194v501h209q13 0 22.5 10t9.5 23.5t-9.5 23t-22.5 9.5h-241
q-13 0 -22.5 -9.5t-9.5 -23.5v-741q0 -6 2 -11v-1q1 -1 1 -2l2 -4h1v-2l1 -1v0q1 -1 1 -2q1 0 2 -1q0 -1 1 -1v-1h1l1 -1l1 -1v0l1 -1q1 0 2 -1q2 -1 5 -2h1v-1h2h2q1 0 1 -1h1h1h2h825h3q1 0 2 1h1q2 0 5 1q1 0 2 1t2 1q2 1 3 2q1 0 2 1l2 2zM183 379h745l-123 -369h-745z
" />
    <glyph glyph-name="uniE635" unicode="&#xe635;" 
d="M806 -62h-598q-50 0 -85 35t-35 84v120h60v-120q0 -24 17.5 -41.5t42.5 -17.5h598q24 0 41.5 17.5t17.5 41.5v658q0 25 -17.5 42.5t-41.5 17.5h-598q-25 0 -42.5 -17.5t-17.5 -42.5v-120h-60v120q0 50 35 85t85 35h598q49 0 84 -35t35 -85v-658q0 -49 -35 -84t-84 -35z
M192 573q-8 9 -8 21t8.5 21t21 9t21.5 -9l206 -206q9 -9 8 -23q1 -13 -8 -22l-206 -207q-9 -8 -21.5 -8t-21 8.5t-8.5 21t8 21.5l157 156h-231q-12 0 -21 9t-9 21.5t9 21t21 8.5h231zM602 317v46h-88q-28 0 -28 20t28 23h60l-103 158q-2 0 -5 5q-5 8 -5 20q0 18 23 23
q17 -2 30 -18l116 -173l116 173q10 16 30 18q20 -5 23 -23q0 -7 -8 -20q-2 -2 -2 -5l-104 -158h61q25 -3 27 -23q-2 -20 -27 -20h-88v-46h88q25 -2 27 -22q-2 -20 -27 -20h-88v-101q-3 -25 -28 -25q-28 0 -28 25v101h-88q-28 0 -28 20t28 22h88z" />
    <glyph glyph-name="uniE636" unicode="&#xe636;" 
d="M218 839h598q50 0 85 -35t35 -84v-120h-60v120q0 25 -17.5 42.5t-42.5 17.5h-598q-24 0 -41.5 -17.5t-17.5 -42.5v-658q0 -24 17.5 -41.5t41.5 -17.5h598q25 0 42.5 17.5t17.5 41.5v120h60v-120q0 -49 -35 -84t-85 -35h-598q-49 0 -84 35t-35 84v658q0 49 35 84t84 35z
M662 582q-9 9 -9 21.5t8.5 21t21 8.5t21.5 -9l206 -206q9 -9 9 -22q0 -14 -9 -23l-206 -206q-9 -9 -21.5 -9t-21 8.5t-8.5 21t9 21.5l156 157h-230q-13 0 -21.5 8.5t-8.5 21t8.5 21t21.5 8.5h230zM346 327v45h-88q-28 0 -28 20t28 23h60l-103 159q-2 0 -5 5q-5 7 -5 20
q0 17 23 22q17 -2 30 -17l116 -174l116 174q10 15 30 17q20 -5 23 -22q0 -8 -8 -20q-2 -3 -2 -5l-104 -159h61q25 -3 27 -23q-2 -20 -27 -20h-88v-45h88q25 -3 27 -23q-2 -20 -27 -20h-88v-101q-3 -25 -28 -25q-28 0 -28 25v101h-88q-28 0 -28 20t28 23h88z" />
    <glyph glyph-name="uniE637" unicode="&#xe637;" 
d="M512 565q-25 0 -43 -17.5t-18 -43t18 -43t43 -17.5t43 17.5t18 43t-18 43t-43 17.5zM767 757q-142 0 -255 84q-113 -84 -255 -84q-49 0 -101 18v-400q0 -56 38 -131q40 -78 113 -159q65 -73 138 -128q28 -21 52 -35q11 -7 22 0q24 15 52 36q75 58 142 130q75 82 116 159
q39 74 39 128v400q-52 -18 -101 -18zM550 343v-175q0 -16 -11 -27t-27 -11t-27 11t-11 27v175q-56 13 -92 58t-36 104q0 68 48.5 117t117.5 49t117.5 -49t48.5 -117q0 -59 -36 -104t-92 -58z" />
    <glyph glyph-name="uniE638" unicode="&#xe638;" horiz-adv-x="1025" 
d="M462 701q27 38 72.5 46t82.5 -18q38 -27 46 -72.5t-19 -83.5q-7 -11 -14 -17t-16.5 -7t-15 -1t-17.5 7t-17 10t-20.5 14t-20.5 14.5t-20.5 14t-20 14t-15 12.5t-12.5 14.5t-4.5 14.5t1 18t10.5 20zM124 110l-11 -5l1 12l222 322l14 -12zM483 350q15 19 32 37q44 43 97 65
q57 25 119 25h12q30 74 15 162q-17 96 -97 152t-176 39q-101 -18 -165.5 -87.5t-47.5 -162.5q10 -54 34 -102l-232 -333q-16 -23 -11 -50l10 -57l-4 21l3 -10q2 -10 5.5 -20t5.5 -10l77 -1q11 2 23 10t18 17l92 143l1 1l80 -6l108 167h1zM800 141q-14 -33 -47 -46.5t-67 0.5
q-33 14 -46.5 47t0.5 66q13 33 46.5 46.5t66.5 -0.5t47 -47t0 -66zM898 201l64 40l-24 57l-73 -17q-14 20 -37 38l16 72l-58 24l-39 -62q-27 3 -53 0l-39 63l-58 -24l16 -72q-22 -15 -39 -38l-72 17l-24 -57l62 -40q-4 -27 0 -53l-63 -39l24 -58l73 16q15 -21 38 -37
l-18 -73l58 -23l41 62q27 -4 53 0l40 -63l58 24l-17 73q21 15 37 37l74 -17l24 57l-64 40q4 26 0 53z" />
    <glyph glyph-name="uniE639" unicode="&#xe639;" horiz-adv-x="1025" 
d="M981 35q6 -25 -2.5 -47t-27 -38.5t-45 -26.5t-57.5 -10q-194 -1 -346 -1h-348q-37 0 -65.5 13.5t-45 33t-22.5 42.5t1 41q7 14 13 30q5 13 12 30t15 34l39 95h117l-44 -129h659l-44 129h112q22 -53 39 -95q7 -18 14 -35.5t13 -31.5t9.5 -23.5t3.5 -10.5zM466 224
q-20 23 -45 57t-51.5 69.5t-52.5 70.5t-47 60q-23 28 -18 46t35 18q16 -1 43.5 0.5t46.5 1.5q20 0 25 12.5t5 32.5q0 23 -0.5 50t-0.5 55.5t-0.5 56t-0.5 51.5q0 10 1.5 21.5t7.5 20.5t16.5 15.5t29.5 6.5q21 0 39 0.5t42 0.5q33 0 45 -16t13 -51v-40q0 -24 0.5 -50.5
t0.5 -52.5v-49q0 -29 6 -47t28 -17q15 0 37 -1t39 -1q27 0 35 -15t-11 -38q-19 -25 -45 -60t-53 -72t-53 -72.5t-47 -61.5q-18 -23 -35 -23.5t-35 21.5z" />
    <glyph glyph-name="uniE63A" unicode="&#xe63a;" horiz-adv-x="1025" 
d="M746 263q-10 0 -17 -6.5t-7 -16.5q0 -53 -23 -66h-98q-9 0 -13 2v136h83q21 0 36 14.5t15 34.5v109q0 20 -15 34.5t-36 14.5h-48l52 76q6 8 3.5 17.5t-11 14.5t-18 3t-15.5 -10l-69 -101h-78l-110 111q-6 7 -16.5 7.5t-17.5 -6t-7.5 -16t6.5 -16.5l79 -80h-61
q-22 0 -37 -14.5t-15 -34.5v-109q0 -20 15 -34.5t37 -14.5h42q-4 -18 -11.5 -35.5t-21.5 -39t-37.5 -39t-54.5 -25.5q-9 -3 -14 -11.5t-2 -17.5q5 -16 23 -16q4 0 8 1q41 12 72.5 36t49 53t25.5 50.5t13 43.5h87v-135q-2 -17 11 -31q16 -18 51 -18h102l4 1q4 0 9.5 2
t15.5 9.5t18 18.5t14 32.5t6 48.5q0 10 -7 16.5t-17 6.5zM360 358q-3 0 -3 3v109q0 3 3 3h213q3 -1 5 -1q3 0 6 1h87q3 0 3 -3v-109q0 -3 -3 -3h-311zM515.5 891q-103.5 0 -198 -40.5t-162.5 -108.5t-108.5 -162.5t-40.5 -198t40.5 -197.5t108.5 -162.5t162.5 -108.5
t198 -40t197.5 40t162.5 108.5t108.5 162.5t40 197.5t-40 198t-108.5 162.5t-162.5 108.5t-197.5 40.5zM515.5 -75q-92.5 0 -177 36.5t-146 97.5t-97.5 145.5t-36 177t36 177t97.5 145.5t146 97.5t177 36.5t177 -36.5t145.5 -97.5t97 -145.5t36 -177t-36 -177t-97 -145.5
t-145.5 -97.5t-177 -36.5zM746 263q-10 0 -17 -6.5t-7 -16.5q0 -53 -23 -66h-98q-9 0 -13 2v136h83q21 0 36 14.5t15 34.5v109q0 20 -15 34.5t-36 14.5h-48l52 76q6 8 3.5 17.5t-11 14.5t-18 3t-15.5 -10l-69 -101h-78l-110 111q-6 7 -16.5 7.5t-17.5 -6t-7.5 -16t6.5 -16.5
l79 -80h-61q-22 0 -37 -14.5t-15 -34.5v-109q0 -20 15 -34.5t37 -14.5h42q-4 -18 -11.5 -35.5t-21.5 -39t-37.5 -39t-54.5 -25.5q-9 -3 -14 -11.5t-2 -17.5q5 -16 23 -16q4 0 8 1q41 12 72.5 36t49 53t25.5 50.5t13 43.5h87v-135q-2 -17 11 -31q16 -18 51 -18h102l4 1
q4 0 9.5 2t15.5 9.5t18 18.5t14 32.5t6 48.5q0 10 -7 16.5t-17 6.5zM360 358q-3 0 -3 3v109q0 3 3 3h213q3 -1 5 -1q3 0 6 1h87q3 0 3 -3v-109q0 -3 -3 -3h-311zM515.5 891q-103.5 0 -198 -40.5t-162.5 -108.5t-108.5 -162.5t-40.5 -198t40.5 -197.5t108.5 -162.5
t162.5 -108.5t198 -40t197.5 40t162.5 108.5t108.5 162.5t40 197.5t-40 198t-108.5 162.5t-162.5 108.5t-197.5 40.5zM515.5 -75q-92.5 0 -177 36.5t-146 97.5t-97.5 145.5t-36 177t36 177t97.5 145.5t146 97.5t177 36.5t177 -36.5t145.5 -97.5t97 -145.5t36 -177t-36 -177
t-97 -145.5t-145.5 -97.5t-177 -36.5z" />
    <glyph glyph-name="uniE63B" unicode="&#xe63b;" 
d="M717 162l-84 -84q-5 -5 -5 -11.5t5 -11.5l84 -84q5 -5 12 -5t11.5 5t4.5 12t-4 11l-56 56h161q7 0 12 5t5 11.5t-5 11.5t-12 5h-161l56 55q4 5 4 12t-4.5 12t-11.5 5t-12 -5zM717 162zM966 66.5q0 -91.5 -64.5 -156t-156 -64.5t-156 64.5t-64.5 156t64.5 156t156 64.5
t156 -64.5t64.5 -156zM557 66.5q0 -77.5 55.5 -133t133 -55.5t133 55.5t55.5 133t-55.5 133t-133 55.5t-133 -55.5t-55.5 -133zM754 364q0 -13 -9.5 -22.5t-22.5 -9.5h-471q-13 0 -22.5 9.5t-9.5 22.5t9.5 22.5t22.5 9.5h471q13 0 22.5 -9.5t9.5 -22.5zM754 492
q0 -13 -9.5 -22.5t-22.5 -9.5h-471q-13 0 -22.5 9.5t-9.5 22.5t9.5 22.5t22.5 9.5h471q13 0 22.5 -9.5t9.5 -22.5zM152 -20q-10 0 -17 11t-7 23v605q4 0 10 0.5t14 0.5h45q11 0 18 7t8 14l1 6q0 35 -27 37h-105h-14h-14v-729q0 -12 9 -25.5t19 -13.5h430q-14 0 -26 64h-344z
M320 636v96q0 12 -10 22t-22 10t-22 -10t-10 -22v-96q0 -12 10 -23.5t22 -11.5t22 11.5t10 23.5zM640 636v96q0 12 -10 22t-22 10t-22 -10t-10 -22v-96q0 -12 10 -23.5t22 -11.5t22 11.5t10 23.5zM544 650q0 11 -1 17t-7 11.5t-18 5.5h-108q-14 0 -20.5 -8.5t-6.5 -16.5
l1 -9q0 -12 7.5 -21t18.5 -9h108q11 0 17.5 7.5t7.5 14.5zM896 684h-22h-156q-9 0 -18.5 -7t-9.5 -24t9.5 -25t18.5 -8h99h2q9 0 13 -0.5t7.5 -3.5t3.5 -9l-2 -302q6 -2 22 -6t24.5 -7.5t8.5 -8.5v401zM606 268h-355q-13 0 -22.5 -9.5t-9.5 -22.5t9.5 -22.5t22.5 -9.5h286
q38 64 69 64z" />
    <glyph glyph-name="uniE63C" unicode="&#xe63c;" 
d="M839 462h-533v194q11 39 39 73q60 73 167 72v15v-15q106 1 166 -72q28 -34 39 -73v-63h31v67l-1 2q-10 43 -44 86q-31 37 -73 58q-52 26 -118 26v0v0q-67 0 -119 -26q-42 -21 -72 -58q-35 -43 -45 -86v-2v-198h-91q-12 0 -19.5 -8t-7.5 -19v-471q0 -11 7.5 -19t19.5 -8
h654q11 0 19 8t8 19v471q0 11 -8 19t-19 8zM835 -32h-647v464h647v-464zM487 148v-40q0 -5 7.5 -11.5t19.5 -6.5t19 6.5t7 11.5v40q16 7 26 22.5t10 33.5q0 26 -18 44t-44 18t-44.5 -18t-18.5 -44q0 -18 10 -33.5t26 -22.5z" />
    <glyph glyph-name="uniE63D" unicode="&#xe63d;" 
d="M511 719q-88 0 -168.5 -34.5t-138.5 -92.5t-92.5 -138.5t-34.5 -168.5t34.5 -168.5t92.5 -138.5t138.5 -92.5t168.5 -34.5t168.5 34.5t138.5 92.5t92.5 138.5t34.5 168.5t-34.5 168.5t-92.5 138.5t-138.5 92.5t-168.5 34.5zM510.5 -93q-102.5 0 -189.5 50.5t-137.5 137.5
t-50.5 189.5t50.5 190t137.5 138t189.5 50.5t190 -50.5t138 -138t50.5 -190t-50.5 -189.5t-138 -137.5t-190 -50.5zM390 445q6 -12 20 -12q6 0 11 2q9 5 12 14t-2 18l-27 52q-4 8 -13.5 11t-18 -1.5t-11.5 -13.5t2 -18zM521.5 306q-7.5 6 -17.5 4.5t-16 -9.5l-38 -49
q-10 6 -16 10v32v2q-1 1 -1 2q43 52 57 87q3 9 -0.5 17.5t-12.5 12.5q-5 2 -10 1h-1h-152q-9 0 -16 -6.5t-7 -16.5t7 -16.5t16 -6.5h114q-49 -77 -143 -147q-8 -6 -9.5 -15.5t4.5 -16.5q7 -10 19 -10q7 0 14 5q40 30 74 63v-187q0 -10 7 -17t16.5 -7t16.5 7t7 17v145
q38 -25 55 -45q7 -8 18 -8q9 0 15 5q8 7 8.5 16.5t-5.5 16.5q-13 15 -36 33l37 48q5 8 4 17.5t-8.5 15.5zM588 531q-10 0 -16.5 -6.5t-6.5 -16.5v-446q0 -10 6.5 -17t16.5 -7t16.5 7t6.5 17v446q0 10 -6.5 16.5t-16.5 6.5zM660 361q-7 7 -16.5 7t-16.5 -7t-7 -16.5t7 -16.5
l80 -79q7 -7 16.5 -7t16.5 6.5t7 16.5t-7 17z" />
    <glyph glyph-name="uniE63E" unicode="&#xe63e;" 
d="M216 509h280v-31h-280v31zM216 384h280v-31h-280v31zM216 259h312v-31h-312v31zM216 135h436v-32h-436v32zM746 573q16 0 31 -2v187h-125v63h-62v-63h-62v63h-63v-63h-62v63h-63v-63h-62v63h-62v-63h-125v-811h686v192q-15 -3 -31 -3t-31 3v-129h-562v686h63v-63h62v63
h62v-63h63v63h62v-63h63v63h62v-63h62v63h63v-125q15 2 31 2zM903 316h-20q-5 -17 -14 -33l19 -18q9 -9 9 -21.5t-9 -20.5l-11 -11q-9 -9 -21.5 -9t-20.5 9l-19 18q-15 -8 -33 -13v-19q0 -13 -8.5 -21.5t-21.5 -8.5h-15q-12 0 -21 8.5t-9 21.5v19q-17 5 -32 13l-19 -18
q-9 -9 -21.5 -9t-20.5 9l-11 11q-9 8 -9 20.5t9 21.5l18 18q-9 16 -13 33h-20q-13 0 -21.5 9t-8.5 21v15q0 13 8.5 21.5t21.5 8.5h19q5 18 14 33l-18 18q-9 8 -9 20.5t9 21.5l11 11q8 9 20.5 9t21.5 -9l17 -18q16 10 34 15v20q0 12 9 21t21 9h15q13 0 21.5 -9t8.5 -21v-20
q18 -5 34 -15l18 18q8 9 20.5 9t21.5 -9l11 -11q9 -9 9 -21.5t-9 -20.5l-18 -18q9 -15 13 -33h20q12 0 21 -8.5t9 -21.5v-15q0 -12 -9 -21t-21 -9zM746 436q-34 0 -58.5 -24t-24.5 -58.5t24.5 -58.5t58.5 -24t58 24t24 58.5t-24 58.5t-58 24zM745.5 317q-15.5 0 -26.5 11
t-11 26.5t11 26.5t26.5 11t26.5 -11t11 -26.5t-11 -26.5t-26.5 -11z" />
    <glyph glyph-name="uniE63F" unicode="&#xe63f;" 
d="M979 247l-123 124q-13 13 -32 13h-201q-21 0 -36 -14.5t-15 -35.5v-378q0 -21 15 -35.5t36 -14.5h318q21 0 36 14.5t15 35.5v260q0 18 -13 31zM932 -34h-300v358h186l114 -115v-243zM680 204h87q12 0 21 9t9 21t-9 21t-21 9h-87q-12 0 -21 -9t-9 -21t9 -21t21 -9z
M650 144q0 -12 9 -21t21 -9h194q13 0 21.5 9t8.5 21t-8.5 21t-21.5 9h-194q-12 0 -21 -9t-9 -21zM874 84h-194q-12 0 -21 -9t-9 -21t9 -21t21 -9h194q13 0 21.5 9t8.5 21t-8.5 21t-21.5 9zM486 204h-64v60h61q12 0 21 9t9 21t-9 21t-21 9h-357q-14 0 -24 10t-10 24v352
q0 14 10 24t24 10h532q14 0 24 -10t10 -24v-238q0 -13 9 -21.5t21.5 -8.5t21 8.5t8.5 21.5v238q0 39 -27.5 66.5t-66.5 27.5h-532q-39 0 -66.5 -27.5t-27.5 -66.5v-352q0 -39 27.5 -66.5t66.5 -27.5h236v-60h-120q-12 0 -21 -9t-9 -21t9 -21t21 -9h244q12 0 21 9t9 21t-9 21
t-21 9z" />
    <glyph glyph-name="uniE640" unicode="&#xe640;" 
d="M968 488l-52 -51l-143 142l52 51q12 12 28 13t26 -9l94 -92q10 -10 8 -26t-13 -28v0v0zM748 555l144 -141l-342 -337q-6 -6 -13 -7q-1 0 -2 -1l-179 -56q-9 -2 -14 3t-2 13l57 176q0 1 1 2q2 11 8 14l65 60h-217q-7 0 -12 6t-5 12q0 7 5 13t12 6h251zM505 88l-88 87
l-24 -73l38 -38zM743 499q-3 4 -8.5 4t-9.5 -4l-268 -263q-5 -3 -5 -8.5t5 -9.5q3 -3 8.5 -3t9.5 3l267 263q10 8 1 18v0v0zM146 -14q-7 0 -12.5 3t-5.5 10v716q0 4 0.5 6.5t2 4t4 2t4.5 1t6 0t6 -0.5h62v-24q0 -6 6.5 -11.5t13.5 -5.5q8 0 14.5 5.5t6.5 11.5v24h93v-24
q0 -6 6 -11.5t14 -5.5q7 0 14 5.5t7 11.5v24h85v-24q0 -6 6 -11.5t14 -5.5q7 0 13.5 5.5t6.5 11.5v24h85v-24q0 -6 6.5 -11.5t14.5 -5.5q7 0 13.5 5.5t6.5 11.5v24h71q15 0 15 -13v-118l52 51v67q0 28 -19 46t-48 18h-72v44q0 7 -6.5 12t-13.5 5q-8 0 -14.5 -5t-6.5 -12v-44
h-85v44q0 7 -6 12t-14 5q-7 0 -14 -5t-7 -12v-44h-85v44q0 7 -6 12t-14 5q-7 0 -13.5 -5t-6.5 -12v-44h-93v44q0 7 -6.5 12t-14.5 5q-7 0 -13.5 -5t-6.5 -12v-44h-61q-37 0 -56.5 -17.5t-19.5 -46.5v-715q0 -28 21.5 -46.5t50.5 -18.5h562q29 0 48 18.5t19 46.5v247l-52 -51
v-197q0 -13 -15 -13h-563zM591 585h-338q-7 0 -11.5 -6t-4.5 -13t4.5 -13t11.5 -6h338q7 0 11.5 6.5t4.5 13t-4.5 12.5t-11.5 6v0v0zM591 455h-338q-7 0 -11.5 -6.5t-4.5 -12.5q0 -7 4.5 -13t11.5 -6h338q7 0 11.5 6t4.5 12.5t-4.5 13t-11.5 6.5v0v0zM591 455z" />
    <glyph glyph-name="uniE641" unicode="&#xe641;" 
d="M810 581q48 116 -10 167l-289 -384l-33 -46q-56 -80 -75 -117l-27 -54q-19 -38 -28 -54q-10 -19 -16.5 -24t-11.5 1q-2 1 -3 3h-1q-3 5 -9 9q-30 26 -67 26q-46 0 -79 -37.5t-33 -90.5t33 -90.5t79 -37.5q37 0 66.5 25.5t40.5 65.5q27 83 65 143q17 27 42 48.5t41 29.5
l16 8l64 64q209 279 235 345zM240 -84q-23 0 -39.5 19t-16.5 45t16.5 45t39.5 19t39.5 -19t16.5 -45t-16.5 -45t-39.5 -19zM512 236q-13 0 -22.5 9.5t-9.5 22.5t9.5 22.5t22.5 9.5t22.5 -9.5t9.5 -22.5t-9.5 -22.5t-22.5 -9.5zM415 281q19 30 36 55v1h1l34 46v0l6 8
l-268 357q-58 -51 -11 -167q23 -55 202 -300zM784 108q-38 0 -68 -26q-6 -4 -9 -9l-3 -3q-6 -6 -12 -1t-17 24q-9 16 -28 54t-26 54q-5 9 -14 24q-3 -5 -6 -8l-1 -2l-2 -2l-57 -57q44 -29 70 -70q17 -27 33.5 -62.5t24.5 -58.5l8 -22q10 -40 39.5 -65.5t67.5 -25.5
q46 0 79 37.5t33 90.5t-33 90.5t-79 37.5zM784 -84q-23 0 -39.5 19t-16.5 45t16.5 45t39.5 19t39 -19t16 -45t-16 -45t-39 -19z" />
    <glyph glyph-name="uniE642" unicode="&#xe642;" 
d="M933 -35h-116v-86q0 -12 -8.5 -20.5t-20.5 -8.5t-20.5 8.5t-8.5 20.5v86h-550q-1 0 -7 2h-2q-1 0 -2 1q-11 4 -16 16v1v2q-2 5 -2 7v579h-87q-12 0 -20 8.5t-8 20.5t8 20.5t20 8.5h87v87q0 12 8.5 20.5t20.5 8.5t20.5 -8.5t8.5 -20.5v-87h539l48 50q8 8 20 8t20.5 -8.5
t8.5 -20.5t-8 -21l-49 -51v-565h116q12 0 20.5 -8.5t8.5 -20.5t-8.5 -20.5t-20.5 -8.5zM238 573v-506l484 506h-484zM277 23h482v505z" />
    <glyph glyph-name="uniE643" unicode="&#xe643;" 
d="M524 182q-75 0 -128 53t-53 128t53 128t128 53t128 -53t53 -128t-53 -128t-128 -53zM524 509q-60 0 -103 -42.5t-43 -103t43 -103t103 -42.5t103 42.5t43 103t-43 103t-103 42.5zM777 -71q-7 0 -12.5 5t-5.5 13q0 97 -69 166t-166.5 69t-166.5 -69t-69 -166q0 -8 -5 -13
t-12.5 -5t-12.5 5t-5 13q0 112 79.5 191t191.5 79t191.5 -79t79.5 -191q0 -8 -5.5 -13t-12.5 -5zM441 554zM61 17q-7 0 -12.5 5.5t-5.5 12.5q0 88 52 159t134 98q-44 23 -70 66t-26 94q0 74 53 127.5t128 53.5q86 0 141 -67q4 -6 3.5 -13.5t-6.5 -12t-13 -3.5t-12 6
q-43 54 -113 54q-60 0 -103 -42.5t-43 -103t43 -103t103 -42.5q7 0 12.5 -5.5t5.5 -12.5t-5.5 -12.5t-12.5 -5.5q-97 0 -166 -69t-69 -166q0 -7 -5.5 -12.5t-12.5 -5.5zM750 220q-4 0 -8 2q-12 5 -10 18l11 76h-1q-7 0 -12 5.5t-5 12.5t5 12.5t12 5.5h21q8 0 13.5 -6
t4.5 -14l-6 -43l56 58q5 5 13 5h101v284h-413v-54q0 -7 -5 -12t-12.5 -5t-12.5 5t-5 12v71q0 8 5 13t13 5h448q7 0 12.5 -5t5.5 -13v-318q0 -8 -5.5 -13t-12.5 -5h-112l-89 -92q-5 -5 -12 -5z" />
    <glyph glyph-name="uniE644" unicode="&#xe644;" 
d="M210 722h562q47 0 80 -33t33 -79v-113h-56v113q0 23 -16.5 39.5t-40.5 16.5h-562q-24 0 -40.5 -16.5t-16.5 -39.5v-619q0 -24 16.5 -40t40.5 -16h562q24 0 40.5 16t16.5 40v112h56v-112q0 -47 -33 -80t-80 -33h-562q-47 0 -80 33t-33 80v619q0 46 33 79t80 33zM774 125
q8 -9 8 -20.5t-8.5 -19.5t-20 -8t-19.5 8l-194 194q-9 9 -8 21q-1 13 8 22l194 194q8 8 19.5 8t20 -8.5t8.5 -20t-8 -19.5l-148 -148h276q11 0 19.5 -8t8.5 -19.5t-8.5 -20t-19.5 -8.5h-276zM774 125zM360 295q44 0 75.5 31t31.5 74.5t-31.5 74.5t-76 31t-76 -31
t-31.5 -74.5t31.5 -74.5t76.5 -31zM362 285q-66 0 -127 -44.5t-61 -103.5v-18h377v18q0 59 -61.5 103.5t-127.5 44.5zM362 285z" />
  </font>
</defs>
</svg>
